<?xml version="1.0" standalone="no"?>
<!DOCTYPE svg PUBLIC "-//W3C//DTD SVG 20010904//EN"
 "http://www.w3.org/TR/2001/REC-SVG-20010904/DTD/svg10.dtd">
<svg version="1.0" xmlns="http://www.w3.org/2000/svg"
 width="804.000000pt" height="804.000000pt" viewBox="0 0 804.000000 804.000000"
 preserveAspectRatio="xMidYMid meet">
<metadata>
Created by potrace 1.11, written by Peter Selinger 2001-2013
</metadata>
<g transform="translate(0.000000,804.000000) scale(0.100000,-0.100000)"
fill="#000000" stroke="none">
<path d="M3926 6605 c-6 -6 -31 -12 -56 -14 -25 -2 -48 -5 -52 -7 -4 -2 -9 0
-13 5 -3 7 -15 7 -30 1 -14 -5 -27 -5 -30 0 -3 5 -20 4 -40 -1 -19 -6 -39 -7
-44 -4 -5 3 -12 2 -15 -3 -2 -4 -23 -7 -45 -5 -23 1 -46 -4 -53 -11 -7 -7 -28
-11 -46 -10 -17 1 -32 -2 -32 -7 0 -6 -4 -7 -10 -4 -5 3 -10 1 -10 -4 0 -6
-10 -11 -22 -11 -13 1 -43 -2 -68 -5 -25 -3 -50 -7 -57 -7 -7 -1 -14 -7 -17
-14 -3 -7 -14 -10 -27 -7 -15 4 -20 3 -15 -5 5 -8 2 -10 -9 -6 -8 4 -21 1 -29
-5 -7 -6 -16 -8 -19 -4 -4 3 -7 1 -7 -6 0 -7 -10 -11 -22 -9 -13 2 -22 -2 -21
-8 1 -7 -8 -9 -24 -6 -14 3 -28 0 -32 -7 -4 -6 -20 -12 -35 -13 -16 -2 -31 -8
-33 -15 -3 -7 -9 -10 -14 -7 -5 3 -9 0 -9 -6 0 -6 -4 -9 -9 -5 -5 3 -17 -2
-25 -11 -10 -10 -16 -11 -16 -3 0 8 -3 9 -13 0 -8 -6 -17 -8 -20 -4 -4 3 -7 1
-7 -5 0 -7 -6 -12 -14 -12 -8 0 -16 -5 -18 -12 -2 -6 -15 -13 -28 -15 -13 -2
-27 -8 -31 -15 -4 -6 -11 -8 -17 -4 -5 3 -13 -1 -16 -10 -4 -9 -9 -14 -13 -11
-3 4 -12 2 -20 -4 -7 -6 -13 -8 -13 -3 0 5 -4 5 -8 -1 -13 -19 -106 -79 -98
-64 4 8 -1 4 -10 -8 -9 -13 -23 -23 -31 -23 -8 0 -25 -11 -38 -25 -14 -13 -25
-21 -25 -18 0 4 -10 -3 -22 -15 -13 -11 -35 -24 -50 -27 -17 -5 -25 -12 -21
-21 3 -8 -1 -14 -9 -14 -7 0 -20 -9 -28 -20 -8 -11 -19 -20 -24 -20 -5 0 -31
-22 -58 -50 -27 -27 -53 -50 -59 -50 -13 0 -159 -146 -159 -159 0 -6 -5 -11
-12 -11 -6 0 -8 -3 -5 -6 3 -4 -7 -19 -23 -34 -17 -16 -30 -31 -30 -34 0 -13
-68 -74 -76 -68 -4 4 -4 1 0 -6 8 -13 -23 -63 -63 -99 -13 -13 -20 -23 -15
-23 5 0 1 -7 -9 -14 -10 -8 -18 -17 -18 -20 3 -20 0 -26 -10 -21 -6 4 -10 1
-8 -6 3 -24 -1 -43 -7 -36 -8 7 -33 -15 -28 -25 6 -10 -18 -58 -29 -58 -5 0
-7 -6 -4 -13 3 -7 -4 -19 -14 -25 -10 -7 -19 -18 -19 -26 0 -18 -26 -67 -32
-61 -2 3 -5 -1 -6 -7 0 -7 -3 -22 -6 -33 -2 -11 -5 -28 -5 -38 -1 -10 -5 -15
-11 -12 -5 3 -12 -6 -16 -20 -3 -14 -10 -25 -16 -25 -5 0 -7 -4 -3 -9 3 -5 1
-12 -4 -15 -5 -4 -8 -14 -7 -24 2 -9 -5 -28 -15 -41 -11 -13 -19 -34 -19 -47
0 -13 -5 -24 -11 -24 -7 0 -9 -9 -6 -21 3 -12 0 -22 -9 -26 -8 -3 -11 -9 -8
-14 3 -5 1 -9 -5 -9 -5 0 -8 -9 -6 -20 2 -13 -2 -20 -11 -20 -11 0 -12 -5 -6
-17 10 -22 9 -32 -6 -61 -7 -12 -15 -51 -19 -87 -3 -36 -10 -65 -15 -65 -5 0
-6 -4 -3 -10 3 -5 2 -10 -3 -10 -5 0 -8 -10 -7 -22 1 -13 -2 -31 -7 -42 -8
-14 -7 -17 3 -11 8 6 10 4 4 -6 -5 -7 -10 -36 -11 -62 -1 -27 -7 -52 -13 -56
-7 -5 -11 -47 -12 -117 0 -98 -4 -160 -9 -174 -1 -3 -2 -9 -1 -14 5 -26 12
-140 13 -205 0 -41 6 -84 13 -95 7 -12 11 -46 10 -78 -1 -32 1 -58 5 -58 4 0
6 -20 5 -46 -1 -25 3 -48 8 -51 6 -4 7 -1 2 7 -5 9 -4 11 3 6 7 -4 12 -24 12
-44 0 -20 4 -43 9 -51 5 -8 6 -24 1 -35 -5 -14 -2 -24 7 -31 7 -5 16 -23 19
-40 3 -16 9 -32 14 -35 5 -3 11 -24 12 -47 2 -23 6 -39 10 -37 8 5 33 -74 29
-94 -1 -8 5 -22 14 -32 8 -9 18 -28 20 -41 3 -13 9 -25 15 -27 5 -2 10 -11 10
-21 0 -22 23 -71 33 -71 5 0 6 -4 3 -9 -3 -5 5 -25 19 -45 14 -20 25 -41 25
-46 0 -6 5 -10 10 -10 6 0 10 -14 10 -31 0 -17 4 -28 10 -24 9 5 11 1 10 -20
0 -3 11 -17 24 -32 13 -14 22 -32 19 -39 -3 -8 2 -14 11 -14 9 0 15 -6 13 -12
-1 -7 3 -12 10 -11 8 2 10 -4 6 -15 -3 -9 -2 -14 2 -10 5 5 16 -10 26 -32 10
-22 23 -40 29 -40 6 0 8 -5 5 -11 -4 -5 5 -21 18 -33 14 -13 23 -26 21 -29 -3
-3 4 -8 15 -12 11 -3 18 -12 15 -19 -3 -7 7 -18 20 -26 14 -7 23 -17 20 -22
-3 -4 -1 -8 5 -8 15 0 56 -44 59 -64 4 -23 33 -56 49 -56 7 0 12 -5 10 -12 -1
-6 9 -17 23 -25 14 -7 21 -13 17 -13 -4 0 6 -14 24 -31 20 -19 37 -28 47 -24
9 3 14 3 10 0 -7 -7 61 -75 75 -75 4 0 6 -4 3 -9 -3 -5 9 -15 27 -22 17 -7 44
-26 60 -42 15 -15 27 -25 27 -22 0 3 11 -6 25 -20 14 -14 32 -25 40 -25 8 0
20 -9 28 -20 8 -11 17 -17 20 -13 4 3 7 1 7 -6 0 -7 5 -11 12 -9 7 3 23 -6 36
-19 13 -13 28 -21 33 -18 5 4 9 1 9 -4 0 -6 9 -11 20 -11 11 0 20 -5 20 -12 0
-6 3 -9 6 -5 9 9 44 -25 37 -36 -4 -6 3 -8 15 -5 13 4 22 1 22 -5 0 -6 3 -8 6
-4 3 3 15 -3 27 -13 11 -11 24 -17 28 -14 4 2 10 0 14 -6 4 -6 11 -8 16 -5 5
4 9 1 9 -6 0 -6 8 -9 20 -6 11 3 20 2 20 -2 0 -9 82 -46 94 -43 5 2 12 -1 15
-5 3 -4 17 -14 30 -21 19 -11 22 -11 16 0 -6 10 -5 11 6 1 7 -7 21 -13 31 -13
10 0 18 -5 18 -11 0 -6 9 -9 20 -6 11 3 20 1 20 -5 0 -6 7 -8 15 -4 9 3 24 -3
35 -14 12 -12 20 -15 20 -7 0 7 3 8 8 2 7 -10 29 -14 94 -17 20 -1 34 -6 32
-10 -5 -7 10 -12 29 -9 4 0 7 -3 7 -9 0 -6 9 -6 23 -1 15 6 26 4 35 -5 11 -12
49 -20 76 -15 4 1 13 -2 20 -7 6 -4 29 -7 51 -6 22 1 49 -4 60 -10 11 -6 67
-11 125 -12 58 -1 112 -4 120 -8 8 -3 47 -4 85 -1 39 3 114 6 167 7 63 1 99 5
101 13 3 7 32 11 81 11 42 -1 76 2 76 5 0 11 48 17 58 7 6 -6 15 -3 23 9 9 11
26 18 44 17 17 -1 32 2 35 7 3 4 27 10 54 13 27 3 55 11 62 17 11 9 14 8 14 0
0 -7 5 -9 10 -6 6 4 7 11 4 17 -5 7 0 9 14 6 12 -4 22 -2 22 4 0 5 5 6 10 3 6
-3 10 -1 10 5 0 6 5 8 11 5 5 -4 25 0 43 9 19 9 47 17 63 19 16 2 40 11 53 20
14 9 32 17 41 17 10 0 19 6 21 12 3 7 11 13 19 14 8 0 24 2 37 2 13 1 21 6 18
11 -3 5 15 16 39 26 25 9 45 21 45 26 0 6 5 7 11 4 6 -4 21 3 34 15 13 12 28
19 34 15 6 -3 14 1 17 9 3 9 10 13 15 10 5 -3 9 -1 9 3 0 5 14 14 31 20 20 8
28 16 23 24 -5 8 -3 9 5 4 7 -4 23 3 38 16 15 13 23 17 19 9 -4 -8 1 -5 12 7
11 12 22 19 26 16 3 -4 6 -1 6 5 0 6 9 14 20 17 11 4 18 11 15 16 -4 5 3 9 15
9 21 0 82 54 72 64 -5 5 22 10 41 7 4 0 7 3 7 9 0 14 88 101 105 104 8 1 23
12 33 24 11 12 25 22 32 22 7 0 11 3 7 6 -3 4 12 23 34 44 22 21 41 44 42 51
2 8 20 33 42 55 78 79 126 144 118 157 -3 6 -1 7 5 3 7 -4 12 -1 12 8 0 9 7
16 15 16 9 0 12 6 8 17 -4 9 -2 14 3 11 5 -3 15 0 22 8 7 8 9 14 5 14 -4 0 0
7 10 14 10 8 18 16 18 18 -2 14 13 48 21 48 5 0 6 5 3 10 -3 6 -3 10 2 10 4 0
17 13 28 28 19 27 19 27 0 12 -16 -11 -15 -9 3 11 12 14 22 32 22 41 0 9 4 18
8 20 17 7 53 69 46 79 -5 8 -3 9 6 4 10 -6 12 -4 7 8 -4 11 -1 17 8 17 8 0 14
3 13 8 -3 12 14 57 26 64 8 6 8 8 -1 8 -8 0 -8 6 0 25 7 14 15 25 19 25 6 0
19 47 20 67 0 5 5 14 11 22 19 23 35 79 26 90 -5 6 -6 9 -3 6 11 -8 33 28 34
53 0 12 4 22 8 22 5 0 9 14 10 31 0 17 7 38 14 47 11 13 11 14 -1 7 -11 -6
-12 -5 -5 6 5 8 7 22 6 32 -2 9 3 20 11 23 9 3 13 18 11 44 -1 22 1 40 5 40 5
0 8 21 7 46 -1 27 3 48 10 51 15 6 25 41 14 48 -5 3 -7 15 -4 28 9 37 12 52
14 52 1 0 2 24 3 53 1 28 -2 52 -6 52 -5 0 -5 5 -1 11 4 7 7 32 7 57 0 26 5
51 11 58 16 15 14 143 -3 153 -8 5 -11 30 -9 74 2 38 -1 67 -6 67 -6 0 -5 5 1
11 7 7 8 20 4 33 -4 11 -9 43 -10 70 -1 28 -4 53 -7 57 -2 4 0 10 5 14 6 3 3
14 -7 26 -10 11 -15 32 -14 49 2 17 -1 30 -5 30 -5 0 -8 15 -7 34 2 22 -4 40
-17 55 -11 11 -16 21 -12 21 4 0 8 13 8 29 1 16 -2 28 -6 25 -7 -4 -22 34 -20
53 1 6 -3 14 -8 17 -5 3 -7 16 -3 28 3 13 1 19 -5 15 -10 -6 -14 6 -29 83 -3
13 -10 27 -15 31 -6 3 -12 21 -14 40 -3 19 -11 39 -18 44 -8 6 -13 18 -11 27
1 9 -4 22 -11 28 -8 6 -11 18 -8 27 4 9 -1 19 -10 25 -10 5 -17 15 -17 23 0 7
-4 15 -9 17 -5 2 -11 12 -13 23 -1 11 -9 26 -16 33 -7 8 -10 18 -7 23 4 5 1 9
-5 9 -6 0 -8 4 -5 10 3 5 -3 17 -14 26 -10 9 -17 23 -14 30 2 7 -5 15 -16 19
-11 3 -20 9 -19 13 4 16 -14 72 -22 67 -8 -5 -25 24 -22 38 1 4 -4 7 -11 7
-14 0 -40 37 -34 48 6 10 -30 41 -39 34 -4 -4 -4 -1 0 6 5 8 -1 21 -16 34 -12
11 -22 24 -20 29 1 5 -5 9 -13 9 -8 0 -15 8 -15 18 0 10 -9 24 -19 32 -11 7
-18 17 -15 22 3 4 -2 8 -11 8 -8 0 -18 7 -22 16 -9 24 -51 63 -60 55 -4 -3 -1
3 7 13 10 13 10 17 2 12 -7 -4 -15 -1 -18 8 -3 9 -12 16 -19 16 -8 0 -17 9
-20 20 -3 11 -11 20 -16 20 -12 0 -40 26 -34 32 2 2 -14 15 -36 28 -21 14 -42
32 -45 40 -7 19 -62 63 -80 63 -7 0 -11 3 -9 7 2 4 -8 13 -22 21 -15 8 -44 31
-64 52 -21 20 -45 37 -53 37 -9 0 -16 5 -16 10 0 6 -7 10 -16 10 -8 0 -12 5
-9 10 5 9 -15 15 -38 11 -4 -1 -10 6 -13 14 -3 8 -10 12 -15 9 -5 -3 -9 0 -9
5 0 6 -10 11 -22 11 -17 0 -19 3 -9 9 10 6 5 11 -20 17 -19 4 -38 8 -42 8 -5
1 -14 9 -21 18 -7 9 -19 18 -26 20 -8 2 -21 9 -28 16 -8 7 -18 10 -23 7 -5 -4
-9 -1 -9 5 0 6 -4 8 -10 5 -5 -3 -10 -2 -10 2 0 5 -9 14 -21 21 -14 9 -19 10
-14 2 6 -9 2 -9 -14 -1 -11 7 -21 15 -21 19 0 4 -12 8 -26 9 -15 0 -30 7 -34
14 -8 12 -21 16 -65 22 -11 1 -25 8 -30 15 -6 7 -24 15 -40 17 -17 2 -30 4
-30 5 0 1 -9 3 -19 5 -10 2 -22 9 -26 15 -4 6 -27 12 -51 14 -47 4 -79 14 -79
25 0 3 -12 7 -27 7 -16 1 -47 3 -70 4 -23 1 -47 8 -52 14 -6 7 -25 11 -43 11
-18 -1 -39 5 -46 12 -8 8 -28 13 -45 13 -109 0 -304 14 -315 22 -17 14 -122
16 -136 3z"/>
<path d="M2159 5863 c-13 -16 -12 -17 4 -4 9 7 17 15 17 17 0 8 -8 3 -21 -13z"/>
</g>
</svg>
